<svg xmlns="http://www.w3.org/2000/svg" width="100%" height="100%" viewBox="0 0 1440 320" preserveAspectRatio="none">
  <rect width="100%" height="100%" fill="#d4fc79" />
  <rect width="100%" height="100%" fill="linear-gradient(to right, #96e6a1 0%, #d4fc79 100%)" opacity="0.5"/>
  <path fill="#0099ff" fill-opacity="0.2" d="M0,224L48,213.3C96,203,192,181,288,181.3C384,181,480,203,576,224C672,245,768,267,864,250.7C960,235,1056,181,1152,165.3C1248,149,1344,171,1392,181.3L1440,192L1440,320L1392,320C1344,320,1248,320,1152,320C1056,320,960,320,864,320C768,320,672,320,576,320C480,320,384,320,288,320C192,320,96,320,48,320L0,320Z"></path>
</svg>